<?xml version="1.0" encoding="UTF-8"?>
<!DOCTYPE svg PUBLIC "-//W3C//DTD SVG 1.1//EN" "http://www.w3.org/Graphics/SVG/1.1/DTD/svg11.dtd">
<svg xmlns="http://www.w3.org/2000/svg" version="1.1" width="1000px" height="1000px" style="shape-rendering:geometricPrecision; text-rendering:geometricPrecision; image-rendering:optimizeQuality; fill-rule:evenodd; clip-rule:evenodd" xmlns:xlink="http://www.w3.org/1999/xlink">
<g><path style="opacity:1" fill="#9d1919" d="M -0.5,-0.5 C 1.16667,-0.5 2.83333,-0.5 4.5,-0.5C 23.8604,19.527 43.527,39.1937 63.5,58.5C 62.8783,59.6266 62.045,60.6266 61,61.5C 60.5,355.5 60.3333,649.5 60.5,943.5C 351.5,943.5 642.5,943.5 933.5,943.5C 953.833,962.167 974.167,980.833 994.5,999.5C 662.833,999.5 331.167,999.5 -0.5,999.5C -0.5,666.167 -0.5,332.833 -0.5,-0.5 Z"/></g>
<g><path style="opacity:1" fill="#7137c0" d="M 4.5,-0.5 C 336.167,-0.5 667.833,-0.5 999.5,-0.5C 999.5,332.833 999.5,666.167 999.5,999.5C 997.833,999.5 996.167,999.5 994.5,999.5C 974.167,980.833 953.833,962.167 933.5,943.5C 934.122,942.373 934.955,941.373 936,940.5C 936.5,646.5 936.667,352.5 936.5,58.5C 645.5,58.5 354.5,58.5 63.5,58.5C 43.527,39.1937 23.8604,19.527 4.5,-0.5 Z"/></g>
<g><path style="opacity:1" fill="#fefefe" d="M 63.5,58.5 C 354.5,58.5 645.5,58.5 936.5,58.5C 936.667,352.5 936.5,646.5 936,940.5C 934.955,941.373 934.122,942.373 933.5,943.5C 642.5,943.5 351.5,943.5 60.5,943.5C 60.3333,649.5 60.5,355.5 61,61.5C 62.045,60.6266 62.8783,59.6266 63.5,58.5 Z"/></g>
<g><path style="opacity:1" fill="#7237bf" d="M 302.5,152.5 C 312.871,151.606 322.871,153.106 332.5,157C 357.188,173.104 381.688,189.604 406,206.5C 406.833,402.501 406.667,598.501 405.5,794.5C 382.378,809.477 359.711,824.977 337.5,841C 309.111,853.42 285.277,847.587 266,823.5C 262.224,816.605 259.557,809.272 258,801.5C 257.333,600.5 257.333,399.5 258,198.5C 263.267,173.735 278.101,158.402 302.5,152.5 Z"/></g>
<g><path style="opacity:1" fill="#4fb622" d="M 451.5,236.5 C 500.151,269.59 548.984,302.59 598,335.5C 598.667,445.167 598.667,554.833 598,664.5C 549.037,697.142 500.37,730.142 452,763.5C 451.5,587.834 451.333,412.167 451.5,236.5 Z"/></g>
<g><path style="opacity:1" fill="#9d1918" d="M 642.5,366.5 C 687.786,395.816 732.786,425.65 777.5,456C 796.953,473.105 803.119,494.271 796,519.5C 792.706,526.594 788.54,533.094 783.5,539C 736.655,570.364 689.988,601.864 643.5,633.5C 642.5,544.502 642.167,455.502 642.5,366.5 Z"/></g>
</svg>
