<?xml version="1.0" standalone="no"?>
<!DOCTYPE svg PUBLIC "-//W3C//DTD SVG 20010904//EN"
 "http://www.w3.org/TR/2001/REC-SVG-20010904/DTD/svg10.dtd">
<svg version="1.0" xmlns="http://www.w3.org/2000/svg"
 width="1000.000000pt" height="1000.000000pt" viewBox="0 0 1000.000000 1000.000000"
 preserveAspectRatio="xMidYMid meet">

<g transform="translate(0.000000,1000.000000) scale(0.100000,-0.100000)"
fill="#000000" stroke="none">
<path d="M2975 8450 c-33 -11 -70 -24 -82 -30 -13 -5 -34 -15 -48 -22 -29 -13
-185 -167 -185 -182 0 -6 -11 -32 -25 -58 -59 -111 -55 108 -55 -3163 0 -3271
-4 -3052 55 -3163 14 -26 25 -52 25 -57 0 -20 186 -195 207 -195 6 0 23 -7 39
-14 118 -59 288 -59 423 0 70 31 84 39 105 61 11 13 25 23 29 23 4 0 35 19 69
43 33 23 71 49 83 57 13 8 62 42 110 75 47 33 101 69 120 80 18 11 71 46 117
79 46 32 89 61 96 63 10 4 12 599 10 2946 l-3 2941 -195 133 c-107 74 -215
146 -238 161 -24 15 -70 46 -103 70 -32 23 -62 42 -66 42 -4 0 -16 8 -27 19
-33 30 -136 79 -201 96 -80 20 -186 18 -260 -5z"/>
<path d="M6430 4995 c0 -734 2 -1335 5 -1335 3 0 18 8 33 18 15 10 61 41 102
68 41 27 126 84 187 126 62 43 117 78 121 78 5 0 17 9 27 20 10 11 22 20 27
20 8 0 39 20 183 123 12 8 106 72 210 142 105 71 231 156 280 190 50 34 111
74 136 89 112 65 209 201 235 331 41 207 -12 394 -151 521 -33 31 -130 102
-215 158 -85 56 -229 153 -320 215 -222 151 -385 261 -431 291 -21 14 -124 82
-228 153 -104 70 -192 127 -195 127 -3 0 -6 -601 -6 -1335z"/>
</g>
</svg>
